HIERARCHY
ROOT root
{
  OFFSET -107.059 93.8886 28.4689
  CHANNELS 6 Xposition Yposition Zposition Zrotation Xrotation Yrotation
  JOINT lowerback
  {
    OFFSET 0 0 0
    CHANNELS 6 Xposition Yposition Zposition Zrotation Xrotation Yrotation
    JOINT upperback
    {
      OFFSET -0.0146535 10.7314 1.20016
      CHANNELS 6 Xposition Yposition Zposition Zrotation Xrotation Yrotation
      JOINT thorax
      {
        OFFSET -0.0615349 10.8421 0.200216
        CHANNELS 6 Xposition Yposition Zposition Zrotation Xrotation Yrotation
        JOINT lowerneck
        {
          OFFSET -0.0803938 10.955 -0.362586
          CHANNELS 6 Xposition Yposition Zposition Zrotation Xrotation Yrotation
          JOINT upperneck
          {
            OFFSET 0.744525 13.1821 -0.716092
            CHANNELS 6 Xposition Yposition Zposition Zrotation Xrotation Yrotation
            JOINT head
            {
              OFFSET -0.714609 12.8109 -2.75709
              CHANNELS 6 Xposition Yposition Zposition Zrotation Xrotation Yrotation
              End headSite
              {
                OFFSET -0.301711 13.3161 -0.870562
              }
            }
          }
        }
        JOINT lclavicle
        {
          OFFSET -0.0803938 10.955 -0.362586
          CHANNELS 6 Xposition Yposition Zposition Zrotation Xrotation Yrotation
          JOINT lhumerus
          {
            OFFSET 21.0494 8.71366 -1.80014
            CHANNELS 6 Xposition Yposition Zposition Zrotation Xrotation Yrotation
            JOINT lradius
            {
              OFFSET 0 -27.9395 0
              CHANNELS 6 Xposition Yposition Zposition Zrotation Xrotation Yrotation
              JOINT lwrist
              {
                OFFSET 0 -15.5821 0
                CHANNELS 6 Xposition Yposition Zposition Zrotation Xrotation Yrotation
                JOINT lhand
                {
                  OFFSET 0 -7.79103 0
                  CHANNELS 6 Xposition Yposition Zposition Zrotation Xrotation Yrotation
                  JOINT lfingers
                  {
                    OFFSET 0 -4.76355 0
                    CHANNELS 6 Xposition Yposition Zposition Zrotation Xrotation Yrotation
                    End lfingersSite
                    {
                      OFFSET 0 -3.8405 0
                    }
                  }
                }
                JOINT lthumb
                {
                  OFFSET 0 -7.79103 0
                  CHANNELS 6 Xposition Yposition Zposition Zrotation Xrotation Yrotation
                  End lthumbSite
                  {
                    OFFSET 0 -5.5142 0
                  }
                }
              }
            }
          }
        }
        JOINT rclavicle
        {
          OFFSET -0.0803938 10.955 -0.362586
          CHANNELS 6 Xposition Yposition Zposition Zrotation Xrotation Yrotation
          JOINT rhumerus
          {
            OFFSET -22.6442 7.32563 -0.641706
            CHANNELS 6 Xposition Yposition Zposition Zrotation Xrotation Yrotation
            JOINT rradius
            {
              OFFSET 0 -24.4394 0
              CHANNELS 6 Xposition Yposition Zposition Zrotation Xrotation Yrotation
              JOINT rwrist
              {
                OFFSET 0 -18.0654 0
                CHANNELS 6 Xposition Yposition Zposition Zrotation Xrotation Yrotation
                JOINT rhand
                {
                  OFFSET 0 -9.03275 0
                  CHANNELS 6 Xposition Yposition Zposition Zrotation Xrotation Yrotation
                  JOINT rfingers
                  {
                    OFFSET 0 -5.42111 0
                    CHANNELS 6 Xposition Yposition Zposition Zrotation Xrotation Yrotation
                    End rfingersSite
                    {
                      OFFSET 0 -4.37064 0
                    }
                  }
                }
                JOINT rthumb
                {
                  OFFSET 0 -9.03275 0
                  CHANNELS 6 Xposition Yposition Zposition Zrotation Xrotation Yrotation
                  End rthumbSite
                  {
                    OFFSET 0 -6.27538 0
                  }
                }
              }
            }
          }
        }
      }
    }
  }
  JOINT rfemur
  {
    OFFSET -6.87808 -8.58224 4.63091
    CHANNELS 6 Xposition Yposition Zposition Zrotation Xrotation Yrotation
    JOINT rtibia
    {
      OFFSET 1.05643e-005 -39.9586 0
      CHANNELS 6 Xposition Yposition Zposition Zrotation Xrotation Yrotation
      JOINT rfoot
      {
        OFFSET 0 -32.7363 0
        CHANNELS 6 Xposition Yposition Zposition Zrotation Xrotation Yrotation
        JOINT rtoes
        {
          OFFSET 0 -11.385 -7.56517
          CHANNELS 6 Xposition Yposition Zposition Zrotation Xrotation Yrotation
          End rtoesSite
          {
            OFFSET 0 -6.46114 0
          }
        }
      }
    }
  }
  JOINT lfemur
  {
    OFFSET 6.18079 -8.58223 4.6309
    CHANNELS 6 Xposition Yposition Zposition Zrotation Xrotation Yrotation
    JOINT ltibia
    {
      OFFSET -1.0381e-005 -39.2652 0
      CHANNELS 6 Xposition Yposition Zposition Zrotation Xrotation Yrotation
      JOINT lfoot
      {
        OFFSET -0.00334357 -31.3814 0
        CHANNELS 6 Xposition Yposition Zposition Zrotation Xrotation Yrotation
        JOINT ltoes
        {
          OFFSET 0 -9.94555 -8.16007
          CHANNELS 6 Xposition Yposition Zposition Zrotation Xrotation Yrotation
          End ltoesSite
          {
            OFFSET 0 -5.95839 0
          }
        }
      }
    }
  }
}
MOTION
Frames:	7
Frame Time:	0.00833333
-106.686 93.8821 28.5722 -9.86409 -1.76957 93.8786 0 0 0 -0.47589 -13.3478 -1.73632 -0.0146535 10.7314 1.20016 -0.659452 -4.03883 -2.02698 -0.0615349 10.8421 0.200216 -0.759854 3.21508 -0.92941 -0.0803938 10.955 -0.362586 8.4759 -1.85301 1.57096 0.744525 13.1821 -0.716092 -7.46545 27.2571 4.2747 -0.714609 12.8109 -2.75709 -3.38585 9.07505 2.55487 -0.0803938 10.955 -0.362586 -5.96354e-015 0 1.11816e-014 21.0494 8.71366 -1.80014 -3.55065 10.3632 -161.147 1.08638e-009 -27.9395 6.27219e-010 -0 24.0751 0 6.05876e-010 -15.5821 3.49801e-010 9.48643e-015 -6.5677e-015 -159.392 -1.45919e-025 -7.79103 -3.4981e-010 3.82358 -33.0504 0 -1.65336e-025 -4.76355 -2.13835e-010 0 7.12502 -0 -1.45919e-025 -7.79103 -3.4981e-010 -11.289 -6.26284 2.56911e-015 -0.0803938 10.955 -0.362586 -5.96354e-015 0 1.11816e-014 -22.6442 7.32563 -0.641706 6.56003 9.10771 155.508 -9.50233e-010 -24.4394 5.48614e-010 -0 18.5349 0 -7.02403e-010 -18.0654 4.0553e-010 3.36932e-015 -5.99423e-015 148.68 1.69176e-025 -9.03275 -4.05569e-010 3.07062 -35.9325 0 1.88163e-025 -5.42111 -2.43422e-010 0 7.12502 -0 1.69176e-025 -9.03275 -4.05569e-010 18.2845 -9.04462 -3.49704e-015 -6.87808 -8.58224 4.63091 -1.25528 -7.51744 -16.8584 1.05643e-005 -39.9586 0 -0 11.2918 0 8.65485e-006 -32.7363 0 132.752 -74.0992 131.64 2.3106e-006 -11.385 -7.56517 0 2.78299e-014 -0 6.18079 -8.58223 4.6309 4.15236 -9.77367 12.1021 -1.0381e-005 -39.2652 0 -0 9.6219 0 -0.00334357 -31.3814 0 -96.716 -73.1479 -96.4301 -2.72415e-008 -9.94555 -8.16007 0 3.81667e-014 -0 
-106.681 93.8814 28.5726 -9.85406 -1.76426 93.8912 0 0 0 -0.486526 -13.3274 -1.73676 -0.0146535 10.7314 1.20016 -0.653302 -4.04428 -2.02769 -0.0615349 10.8421 0.200216 -0.747592 3.19885 -0.930177 -0.0803938 10.955 -0.362586 8.47538 -1.85113 1.57115 0.744525 13.1821 -0.716092 -7.48404 27.274 4.28241 -0.714609 12.8109 -2.75709 -3.38739 9.08139 2.55722 -0.0803938 10.955 -0.362586 -5.96354e-015 0 1.11816e-014 21.0494 8.71366 -1.80014 -3.55436 10.3659 -161.215 1.08638e-009 -27.9395 6.27219e-010 -0 24.0958 0 6.05876e-010 -15.5821 3.49801e-010 9.50585e-015 -6.56036e-015 -159.222 -1.45919e-025 -7.79103 -3.4981e-010 3.85231 -33.034 0 -1.65336e-025 -4.76355 -2.13835e-010 0 7.12502 -0 -1.45919e-025 -7.79103 -3.4981e-010 -11.2598 -6.24702 2.56516e-015 -0.0803938 10.955 -0.362586 -5.96354e-015 0 1.11816e-014 -22.6442 7.32563 -0.641706 6.55436 9.10636 155.526 -9.50233e-010 -24.4394 5.48614e-010 -0 18.5423 0 -7.02403e-010 -18.0654 4.0553e-010 3.3685e-015 -5.99373e-015 148.672 1.69176e-025 -9.03275 -4.05569e-010 3.07682 -35.9416 0 1.88163e-025 -5.42111 -2.43422e-010 0 7.12502 -0 1.69176e-025 -9.03275 -4.05569e-010 18.2911 -9.05342 -3.49796e-015 -6.87808 -8.58224 4.63091 -1.25677 -7.50308 -16.8534 1.05643e-005 -39.9586 0 -0 11.2839 0 8.65485e-006 -32.7363 0 132.748 -74.0958 131.635 2.3106e-006 -11.385 -7.56517 0 2.78299e-014 -0 6.18079 -8.58223 4.6309 4.14998 -9.76067 12.1101 -1.0381e-005 -39.2652 0 -0 9.62317 0 -0.00334357 -31.3814 0 -96.7384 -73.1482 -96.4515 -2.72415e-008 -9.94555 -8.16007 0 3.81667e-014 -0 
-106.677 93.8809 28.573 -9.82904 -1.79784 93.8837 0 0 0 -0.452545 -13.2574 -1.73691 -0.0146535 10.7314 1.20016 -0.634793 -4.07637 -2.02933 -0.0615349 10.8421 0.200216 -0.744016 3.12685 -0.930798 -0.0803938 10.955 -0.362586 8.47318 -1.78871 1.5713 0.744525 13.1821 -0.716092 -7.50225 27.2753 4.28594 -0.714609 12.8109 -2.75709 -3.3877 9.06711 2.55883 -0.0803938 10.955 -0.362586 -5.96354e-015 0 1.11816e-014 21.0494 8.71366 -1.80014 -3.56164 10.3767 -161.216 1.08638e-009 -27.9395 6.27219e-010 -0 24.1087 0 6.05876e-010 -15.5821 3.49801e-010 9.50711e-015 -6.55989e-015 -159.211 -1.45919e-025 -7.79103 -3.4981e-010 3.86468 -33.0086 0 -1.65336e-025 -4.76355 -2.13835e-010 0 7.12502 -0 -1.45919e-025 -7.79103 -3.4981e-010 -11.2467 -6.22254 2.56331e-015 -0.0803938 10.955 -0.362586 -5.96354e-015 0 1.11816e-014 -22.6442 7.32563 -0.641706 6.55073 9.10024 155.494 -9.50233e-010 -24.4394 5.48614e-010 -0 18.5324 0 -7.02403e-010 -18.0654 4.0553e-010 3.37319e-015 -5.99658e-015 148.717 1.69176e-025 -9.03275 -4.05569e-010 3.06849 -35.9397 0 1.88163e-025 -5.42111 -2.43422e-010 0 7.12502 -0 1.69176e-025 -9.03275 -4.05569e-010 18.2827 -9.05154 -3.49687e-015 -6.87808 -8.58224 4.63091 -1.25247 -7.49197 -16.8633 1.05643e-005 -39.9586 0 -0 11.2769 0 8.65485e-006 -32.7363 0 132.702 -74.0839 131.588 2.3106e-006 -11.385 -7.56517 0 2.78299e-014 -0 6.18079 -8.58223 4.6309 4.15384 -9.75125 12.1148 -1.0381e-005 -39.2652 0 -0 9.62751 0 -0.00334357 -31.3814 0 -96.7624 -73.1513 -96.4747 -2.72415e-008 -9.94555 -8.16007 0 3.81667e-014 -0 
-106.671 93.8803 28.5734 -9.84457 -1.75557 93.8775 0 0 0 -0.508654 -13.3005 -1.73791 -0.0146535 10.7314 1.20016 -0.64346 -4.05714 -2.03124 -0.0615349 10.8421 0.200216 -0.723563 3.17196 -0.93135 -0.0803938 10.955 -0.362586 8.47391 -1.82951 1.57154 0.744525 13.1821 -0.716092 -7.49947 27.2712 4.29056 -0.714609 12.8109 -2.75709 -3.38864 9.07703 2.55959 -0.0803938 10.955 -0.362586 -5.96354e-015 0 1.11816e-014 21.0494 8.71366 -1.80014 -3.57086 10.3923 -161.177 1.08638e-009 -27.9395 6.27219e-010 -0 24.1175 0 6.05876e-010 -15.5821 3.49801e-010 9.49725e-015 -6.56362e-015 -159.297 -1.45919e-025 -7.79103 -3.4981e-010 3.86703 -32.9726 0 -1.65336e-025 -4.76355 -2.13835e-010 0 7.12502 -0 -1.45919e-025 -7.79103 -3.4981e-010 -11.2434 -6.18775 2.5627e-015 -0.0803938 10.955 -0.362586 -5.96354e-015 0 1.11816e-014 -22.6442 7.32563 -0.641706 6.5485 9.09044 155.43 -9.50233e-010 -24.4394 5.48614e-010 -0 18.5112 0 -7.02403e-010 -18.0654 4.0553e-010 3.38171e-015 -6.00175e-015 148.799 1.69176e-025 -9.03275 -4.05569e-010 3.05168 -35.9307 0 1.88163e-025 -5.42111 -2.43422e-010 0 7.12502 -0 1.69176e-025 -9.03275 -4.05569e-010 18.2655 -9.04291 -3.49461e-015 -6.87808 -8.58224 4.63091 -1.24439 -7.48111 -16.882 1.05643e-005 -39.9586 0 -0 11.2692 0 8.65485e-006 -32.7363 0 132.627 -74.0667 131.511 2.3106e-006 -11.385 -7.56517 0 2.78299e-014 -0 6.18079 -8.58223 4.6309 4.16179 -9.74294 12.1179 -1.0381e-005 -39.2652 0 -0 9.63481 0 -0.00334357 -31.3814 0 -96.7911 -73.1562 -96.5023 -2.72415e-008 -9.94555 -8.16007 0 3.81667e-014 -0 
-106.665 93.8797 28.5738 -9.83553 -1.7858 93.8783 0 0 0 -0.4585 -13.301 -1.73862 -0.0146535 10.7314 1.20016 -0.643012 -4.05973 -2.03315 -0.0615349 10.8421 0.200216 -0.74858 3.16785 -0.93161 -0.0803938 10.955 -0.362586 8.47297 -1.80084 1.57169 0.744525 13.1821 -0.716092 -7.49793 27.2564 4.29349 -0.714609 12.8109 -2.75709 -3.38859 9.06672 2.56022 -0.0803938 10.955 -0.362586 -5.96354e-015 0 1.11816e-014 21.0494 8.71366 -1.80014 -3.57976 10.4089 -161.128 1.08638e-009 -27.9395 6.27219e-010 -0 24.1239 0 6.05876e-010 -15.5821 3.49801e-010 9.48408e-015 -6.56858e-015 -159.412 -1.45919e-025 -7.79103 -3.4981e-010 3.86465 -32.9379 0 -1.65336e-025 -4.76355 -2.13835e-010 0 7.12502 -0 -1.45919e-025 -7.79103 -3.4981e-010 -11.2448 -6.15428 2.56272e-015 -0.0803938 10.955 -0.362586 -5.96354e-015 0 1.11816e-014 -22.6442 7.32563 -0.641706 6.54681 9.08201 155.364 -9.50233e-010 -24.4394 5.48614e-010 -0 18.4907 0 -7.02403e-010 -18.0654 4.0553e-010 3.39037e-015 -6.00698e-015 148.881 1.69176e-025 -9.03275 -4.05569e-010 3.03089 -35.9186 0 1.88163e-025 -5.42111 -2.43422e-010 0 7.12502 -0 1.69176e-025 -9.03275 -4.05569e-010 18.2442 -9.03119 -3.4918e-015 -6.87808 -8.58224 4.63091 -1.23789 -7.47187 -16.9017 1.05643e-005 -39.9586 0 -0 11.2637 0 8.65485e-006 -32.7363 0 132.553 -74.0486 131.435 2.3106e-006 -11.385 -7.56517 0 2.78299e-014 -0 6.18079 -8.58223 4.6309 4.16816 -9.73445 12.1207 -1.0381e-005 -39.2652 0 -0 9.6404 0 -0.00334357 -31.3814 0 -96.8194 -73.1608 -96.5295 -2.72415e-008 -9.94555 -8.16007 0 3.81667e-014 -0 
-106.655 93.8792 28.5742 -9.84178 -1.78591 93.8627 0 0 0 -0.44743 -13.317 -1.73944 -0.0146535 10.7314 1.20016 -0.641821 -4.05891 -2.03457 -0.0615349 10.8421 0.200216 -0.756444 3.17695 -0.931736 -0.0803938 10.955 -0.362586 8.47327 -1.80405 1.57183 0.744525 13.1821 -0.716092 -7.50641 27.2537 4.28925 -0.714609 12.8109 -2.75709 -3.3888 9.06608 2.56093 -0.0803938 10.955 -0.362586 -5.96354e-015 0 1.11816e-014 21.0494 8.71366 -1.80014 -3.58598 10.4227 -161.1 1.08638e-009 -27.9395 6.27219e-010 -0 24.1297 0 6.05876e-010 -15.5821 3.49801e-010 9.47548e-015 -6.57181e-015 -159.487 -1.45919e-025 -7.79103 -3.4981e-010 3.86282 -32.9167 0 -1.65336e-025 -4.76355 -2.13835e-010 0 7.12502 -0 -1.45919e-025 -7.79103 -3.4981e-010 -11.246 -6.13378 2.56278e-015 -0.0803938 10.955 -0.362586 -5.96354e-015 0 1.11816e-014 -22.6442 7.32563 -0.641706 6.54482 9.08001 155.327 -9.50233e-010 -24.4394 5.48614e-010 -0 18.4828 0 -7.02403e-010 -18.0654 4.0553e-010 3.39545e-015 -6.01005e-015 148.93 1.69176e-025 -9.03275 -4.05569e-010 3.01064 -35.907 0 1.88163e-025 -5.42111 -2.43422e-010 0 7.12502 -0 1.69176e-025 -9.03275 -4.05569e-010 18.2235 -9.02002 -3.48906e-015 -6.87808 -8.58224 4.63091 -1.23839 -7.46562 -16.9144 1.05643e-005 -39.9586 0 -0 11.2631 0 8.65485e-006 -32.7363 0 132.513 -74.034 131.392 2.3106e-006 -11.385 -7.56517 0 2.78299e-014 -0 6.18079 -8.58223 4.6309 4.16731 -9.72446 12.1242 -1.0381e-005 -39.2652 0 -0 9.63961 0 -0.00334357 -31.3814 0 -96.8423 -73.1627 -96.5515 -2.72415e-008 -9.94555 -8.16007 0 3.81667e-014 -0 
-106.653 93.8786 28.5747 -9.85739 -1.76966 93.8584 0 0 0 -0.464635 -13.3098 -1.74077 -0.0146535 10.7314 1.20016 -0.648461 -4.08314 -2.03572 -0.0615349 10.8421 0.200216 -0.759944 3.14811 -0.931801 -0.0803938 10.955 -0.362586 8.47763 -1.79283 1.5719 0.744525 13.1821 -0.716092 -7.50127 27.2792 4.28229 -0.714609 12.8109 -2.75709 -3.38909 9.07246 2.5617 -0.0803938 10.955 -0.362586 -5.96354e-015 0 1.11816e-014 21.0494 8.71366 -1.80014 -3.58832 10.433 -161.103 1.08638e-009 -27.9395 6.27219e-010 -0 24.1347 0 6.05876e-010 -15.5821 3.49801e-010 9.47299e-015 -6.57274e-015 -159.509 -1.45919e-025 -7.79103 -3.4981e-010 3.86178 -32.9169 0 -1.65336e-025 -4.76355 -2.13835e-010 0 7.12502 -0 -1.45919e-025 -7.79103 -3.4981e-010 -11.247 -6.13394 2.56292e-015 -0.0803938 10.955 -0.362586 -5.96354e-015 0 1.11816e-014 -22.6442 7.32563 -0.641706 6.54186 9.0888 155.338 -9.50233e-010 -24.4394 5.48614e-010 -0 18.4954 0 -7.02403e-010 -18.0654 4.0553e-010 3.39505e-015 -6.00981e-015 148.926 1.69176e-025 -9.03275 -4.05569e-010 2.98866 -35.8949 0 1.88163e-025 -5.42111 -2.43422e-010 0 7.12502 -0 1.69176e-025 -9.03275 -4.05569e-010 18.201 -9.00832 -3.48609e-015 -6.87808 -8.58224 4.63091 -1.25104 -7.46429 -16.9172 1.05643e-005 -39.9586 0 -0 11.2703 0 8.65485e-006 -32.7363 0 132.524 -74.0236 131.402 2.3106e-006 -11.385 -7.56517 0 2.78299e-014 -0 6.18079 -8.58223 4.6309 4.15398 -9.71231 12.1288 -1.0381e-005 -39.2652 0 -0 9.62904 0 -0.00334357 -31.3814 0 -96.8599 -73.1604 -96.5684 -2.72415e-008 -9.94555 -8.16007 0 3.81667e-014 -0 
